<?xml version="1.0" encoding="UTF-8" standalone="no"?>
<!-- Created with Inkscape (http://www.inkscape.org/) -->

<svg
   xmlns:dc="http://purl.org/dc/elements/1.1/"
   xmlns:cc="http://creativecommons.org/ns#"
   xmlns:rdf="http://www.w3.org/1999/02/22-rdf-syntax-ns#"
   xmlns:svg="http://www.w3.org/2000/svg"
   xmlns="http://www.w3.org/2000/svg"
   xmlns:sodipodi="http://sodipodi.sourceforge.net/DTD/sodipodi-0.dtd"
   xmlns:inkscape="http://www.inkscape.org/namespaces/inkscape"
   id="svg2"
   version="1.1"
   inkscape:version="0.91 r13725"
   width="18mm"
   height="18mm"
   xml:space="preserve"
   sodipodi:docname="logo.svg"><metadata
     id="metadata8"><rdf:RDF><cc:Work
         rdf:about=""><dc:format>image/svg+xml</dc:format><dc:type
           rdf:resource="http://purl.org/dc/dcmitype/StillImage" /><dc:title></dc:title></cc:Work></rdf:RDF></metadata><defs
     id="defs6" /><sodipodi:namedview
     pagecolor="#9c12ef"
     bordercolor="#666666"
     borderopacity="1"
     objecttolerance="10"
     gridtolerance="10"
     guidetolerance="10"
     inkscape:pageopacity="0"
     inkscape:pageshadow="2"
     inkscape:window-width="1317"
     inkscape:window-height="783"
     id="namedview4"
     showgrid="false"
     inkscape:zoom="5.5349768"
     inkscape:cx="44.033532"
     inkscape:cy="24.01829"
     inkscape:window-x="0"
     inkscape:window-y="0"
     inkscape:window-maximized="0"
     inkscape:current-layer="g10"
     fit-margin-top="0"
     fit-margin-left="0"
     fit-margin-right="0"
     fit-margin-bottom="0"
     units="mm" /><g
     id="g10"
     inkscape:groupmode="layer"
     inkscape:label="ink_ext_XXXXXX"
     transform="matrix(1.25,0,0,-1.25,0,63.779525)"><g
       id="g4340"
       transform="translate(1.416911,5.249509)"><path
         d="m 27.3938,36.9637 0,1.232 C 17.7754,37.3652 10.1727,29.3906 9.9293,19.6176 l 1.2301,0 c 0.1211,4.6019 1.9648,8.9113 5.2328,12.1797 2.9879,2.9875 6.8457,4.7867 11.0016,5.1664"
         style="fill:#ffffff;fill-opacity:1;fill-rule:nonzero;stroke:none"
         id="path14"
         inkscape:connector-curvature="0" /><path
         d="m 42.5848,32.6672 c -3.2688,3.2683 -7.5121,5.2031 -12.0739,5.5449 l 0,-1.2332 c 4.2329,-0.3394 8.1676,-2.1457 11.2036,-5.1816 3.382,-3.3821 5.2441,-7.8785 5.2441,-12.6614 0,-9.87262 -8.032,-17.90582 -17.9055,-17.90582 -4.7664,0 -9.2484,1.85117 -12.6265,5.2125 l -1.6887,0 C 14.9906,6.15781 15.2508,5.87734 15.5223,5.60469 19.1363,1.99063 23.9426,0 29.0531,0 c 5.1117,0 9.9172,1.99063 13.5317,5.60469 3.614,3.61484 5.605,8.41991 5.605,13.53121 0,5.1114 -1.991,9.9172 -5.605,13.5313"
         style="fill:#ffffff;fill-opacity:1;fill-rule:nonzero;stroke:none"
         id="path16"
         inkscape:connector-curvature="0" /><path
         d="m 40.8316,8.76328 -2.1187,0 1.2051,4.84102 -2.7977,-0.3227 0,8.8008 -1.339,0 0,-13.31912 -14.5961,0 0,1.54412 -14.9434,-0.95584 0,-0.51133 0.89023,-0.07695 -7.13203,0 0,-1.37851 40.8934,0 0,1.37851 -0.0618,0"
         style="fill:#ffffff;fill-opacity:1;fill-rule:evenodd;stroke:none"
         id="path18"
         inkscape:connector-curvature="0" /><path
         d="m 21.293,22.0824 -3.9348,0 -13.41757,-9.8234 2.32656,0 15.02581,9.8234"
         style="fill:#ffffff;fill-opacity:1;fill-rule:evenodd;stroke:none"
         id="path20"
         inkscape:connector-curvature="0" /><path
         d="m 22.5984,26.868 0.2707,0 0,0.2242 c 0.0047,0.0055 0.0094,0.0113 0.0176,0.0191 0.4395,0.4395 2.618,1.059 6.0848,1.059 3.4664,0 5.6449,-0.6195 6.0844,-1.059 0.0078,-0.0078 0.0129,-0.0136 0.0171,-0.0191 l 0,-0.2242 1.1372,0 0,0.2707 c 0,0.2828 -0.1176,0.5441 -0.35,0.7765 -0.4704,0.4703 -1.5145,0.8477 -2.9231,1.0903 -0.3465,0.2797 -1.2246,0.4601 -2.2355,0.5535 l 0.3929,0 0,0.2699 c 0,0.2145 -0.098,0.4215 -0.2754,0.5824 -0.3128,0.2848 -0.841,0.4055 -1.2687,0.4563 l 0,9.657 -1.1965,0 0,-9.6547 c -0.823,-0.0941 -1.5441,-0.4011 -1.5441,-1.041 l 0,-0.2699 0.4195,0 C 26.3621,29.4805 25.434,29.3227 25.025,29.0051 23.3258,28.7242 21.732,28.1824 21.732,27.1387 l 0,-0.2707 0.8664,0"
         style="fill:#ffffff;fill-opacity:1;fill-rule:evenodd;stroke:none"
         id="path22"
         inkscape:connector-curvature="0" /><path
         d="m 21.1852,20.2707 -14.9434,-8.6148 0,-0.5305 14.9434,6.359 0,2.7863"
         style="fill:#ffffff;fill-opacity:1;fill-rule:evenodd;stroke:none"
         id="path24"
         inkscape:connector-curvature="0" /><path
         d="m 21.1852,16.6918 -14.9434,-5.9141 0,-0.3433 14.9434,3.8812 0,2.3762"
         style="fill:#ffffff;fill-opacity:1;fill-rule:evenodd;stroke:none"
         id="path26"
         inkscape:connector-curvature="0" /><path
         d="m 6.2418,9.73711 14.9434,1.40269 0,2.3571 -14.9434,-3.4352 0,-0.32459"
         style="fill:#ffffff;fill-opacity:1;fill-rule:nonzero;stroke:none"
         id="path28"
         inkscape:connector-curvature="0" /><path
         d="m 33.7105,26.1309 c 8e-4,0.0078 0.0028,0.0156 0.0028,0.0234 0,0.5602 -2.1231,1.0137 -4.7422,1.0137 -2.6195,0 -4.7426,-0.4535 -4.7426,-1.0137 l 0,-1.6633 c 1.3481,0.4703 4.0543,0.5012 4.7332,0.5012 0.6821,0 3.4059,-0.0309 4.7488,-0.507 l 0,1.6457"
         style="fill:#ffffff;fill-opacity:1;fill-rule:nonzero;stroke:none"
         id="path30"
         inkscape:connector-curvature="0" /><path
         d="m 33.7105,22.4883 0,1.2555 c -0.5167,0.2285 -2.1101,0.5414 -4.7488,0.5414 -2.6137,0 -4.2015,-0.3067 -4.7332,-0.5352 l 0,-1.8629 c 1.2785,0.3953 3.7891,0.4352 4.7235,0.4352 0.9429,0 3.491,-0.0399 4.7585,-0.4453 l 0,0.6113"
         style="fill:#ffffff;fill-opacity:1;fill-rule:evenodd;stroke:none"
         id="path32"
         inkscape:connector-curvature="0" /><path
         d="m 33.7105,20.5863 0,0.5653 c -0.516,0.1972 -2.0996,0.4636 -4.7585,0.4636 -2.6028,0 -4.1743,-0.255 -4.7235,-0.4511 l 0,-1.8762 c 1.2106,0.3199 3.5418,0.3637 4.7141,0.3637 1.1894,0 3.5742,-0.0442 4.7679,-0.3774 l 0,1.3121"
         style="fill:#ffffff;fill-opacity:1;fill-rule:evenodd;stroke:none"
         id="path34"
         inkscape:connector-curvature="0" /><path
         d="m 33.7105,16.9199 0,1.641 c -0.5253,0.1629 -2.1195,0.384 -4.7679,0.384 -2.5637,0 -4.1391,-0.2066 -4.7141,-0.3672 l 0,-1.8832 c 1.1332,0.2422 3.2824,0.2864 4.7043,0.2864 1.4524,0 3.6664,-0.0465 4.7777,-0.3016 l 0,0.2406"
         style="fill:#ffffff;fill-opacity:1;fill-rule:evenodd;stroke:none"
         id="path36"
         inkscape:connector-curvature="0" /><path
         d="m 33.7105,15.0191 0,0.9575 c -0.5808,0.1402 -2.3085,0.2976 -4.7777,0.2976 -2.3746,0 -4.0613,-0.1445 -4.7043,-0.2816 l 0,-1.8848 c 1.1195,0.1723 3.2793,0.2031 4.6938,0.2031 1.4558,0 3.7,-0.0328 4.7882,-0.2179 l 0,0.9261"
         style="fill:#ffffff;fill-opacity:1;fill-rule:nonzero;stroke:none"
         id="path38"
         inkscape:connector-curvature="0" /><path
         d="m 28.9711,11.2527 c 1.7801,0 3.2367,-0.0422 4.0344,-0.0968 0.0875,-0.0032 0.3617,-0.0176 0.5554,-0.0543 0.0293,-0.0055 0.0528,-0.0098 0.07,-0.0153 0.0304,-0.0078 0.0574,-0.0164 0.0785,-0.025 l 0,0.125 0.0011,0 0,2.2063 c -0.6023,0.1 -2.3273,0.2117 -4.7882,0.2117 -2.3387,0 -4.016,-0.1012 -4.6938,-0.1984 l 0,-2.3371 c 0.0356,0.0109 0.0844,0.0214 0.1375,0.03 0.0477,0.009 0.1137,0.0184 0.1957,0.0266 0.1215,0.0133 0.2235,0.0207 0.2235,0.0207 l 0,-0.0012 c 0.755,0.0602 2.2859,0.1078 4.1859,0.1078"
         style="fill:#ffffff;fill-opacity:1;fill-rule:nonzero;stroke:none"
         id="path40"
         inkscape:connector-curvature="0" /></g></g></svg>